<svg width="256" height="256" viewBox="0 0 256 256" xmlns="http://www.w3.org/2000/svg">
  <defs>
    <linearGradient id="bg" x1="0" y1="0" x2="0" y2="1">
      <stop offset="0" stop-color="#8b6ff0"/>
      <stop offset="1" stop-color="#6e56cf"/>
    </linearGradient>
  </defs>
  <rect width="256" height="256" rx="56" fill="url(#bg)"/>
  <g transform="translate(53 53) scale(6.25)" fill="none" stroke="#ffffff" stroke-width="2" stroke-linecap="round" stroke-linejoin="round">
    <path d="M2 6l1.3 1.3L5.6 4"/>
    <path d="M2 12l1.3 1.3L5.6 10"/>
    <path d="M2 18l1.3 1.3L5.6 16"/>
    <line x1="8" y1="6" x2="11" y2="6"/>
    <line x1="8" y1="12" x2="10.5" y2="12"/>
    <line x1="8" y1="18" x2="21" y2="18"/>
    <g transform="translate(11.4 2.6) scale(0.55)">
      <path d="M12 2C8.7 2 6 4.7 6 8c0 6-3 8-3 8h18s-3-2-3-8c0-3.3-2.7-6-6-6z" stroke-width="3.6"/>
      <path d="M10 20c.2.6.8 1 1.5 1h1c.7 0 1.3-.4 1.5-1" stroke-width="3.6"/>
    </g>
  </g>
</svg>
